# xmcd
#
# Track frame offsets:
#	150
#	91516
#	118531
#	130515
#	200788
#	234023
#
# Disc length: 3773 seconds
#
# Revision: 1
# Processed by: cddbd v1.5.1PL2 Copyright (c) Steve Scherf et al.
# Submitted via: audiograbber 1.83.01
#
DISCID=3d0ebb06
DTITLE=Allman Brothers Band - Wanee Festival, Live Oak, FL 4-14-06 - Disc Two
DYEAR=2006
DGENRE=Blues
TTITLE0=You Don't Love Me
TTITLE1=Into the Mystic
TTITLE2=Leave My Blues At Home
TTITLE3=JaBuMa (Drums)
TTITLE4=The Same Thing
TTITLE5=Jessica
EXTD=
EXTT0=
EXTT1=
EXTT2=
EXTT3=
EXTT4=
EXTT5=
PLAYORDER=
